<?xml version="1.0" encoding="utf-8"?>
<!-- Generator: Adobe Illustrator 18.1.1, SVG Export Plug-In . SVG Version: 6.00 Build 0)  -->
<!DOCTYPE svg PUBLIC "-//W3C//DTD SVG 1.1//EN" "http://www.w3.org/Graphics/SVG/1.1/DTD/svg11.dtd">
<svg version="1.1" id="Capa_1" xmlns="http://www.w3.org/2000/svg" xmlns:xlink="http://www.w3.org/1999/xlink" x="0px" y="0px"
	 viewBox="0 0 245.5 270.5" enable-background="new 0 0 245.5 270.5" xml:space="preserve">
<path fill="#F3F3F3" stroke="#F4F2F2" stroke-width="3" stroke-miterlimit="10" d="M122.7,239.1c-20.1-0.6-35.9-9.1-47.2-25.8
	c-0.8-1.2-1.5-1.8-3-1.9c-15.2-0.9-28.2-6.7-38.6-17.9c-11.6-12.5-16.7-27.3-15-44.3c0.7-7.2,2.8-14,6.2-20.3c0.6-1.1,0.5-1.9,0-3
	C7.8,93.1,26.3,54,61.4,45.1c3.6-0.9,7.2-1.5,10.9-1.5c1.5,0,2.3-0.6,3.1-1.8c9.5-14.2,22.7-23.2,39.6-25.3
	c23.1-2.9,41.5,5.9,54.8,25c1,1.4,2,2.1,3.8,2.2c24.6,1,47.3,19.4,52.4,45.8c2.4,12.6,0.6,24.6-5.2,36c-0.8,1.5-0.7,2.6,0,4.1
	c16.9,32.9-2.5,73.4-38.7,80.8c-3.1,0.6-6.3,1-9.5,1.1c-1.1,0.1-1.7,0.5-2.2,1.4c-8.8,13.4-21,21.8-36.7,25.2
	C130.1,238.8,126.4,239.2,122.7,239.1z M135.7,127.7c0.2,0.1,0.5,0.1,0.7,0.2c13.6,3.6,24.7,11.1,32.5,22.7c2,3,4.2,3.3,7.1,2.9
	c1.5-0.2,3-0.4,4.4-0.7c15.4-3,27.2-11.1,35.8-24.2c0.5-0.8,0.6-1.4,0-2.2c-10.3-15.6-24.8-24-43.4-25.2c-1.3-0.1-2,0.4-2.6,1.4
	c-3.9,6.1-8.8,11.2-14.6,15.5C149.6,122.5,142.9,125.5,135.7,127.7z M109.9,127.6c-0.3-0.3-0.3-0.4-0.4-0.4
	c-14.8-3.9-26.4-12.2-34.6-25.1c-0.5-0.8-1-0.9-1.8-0.9c-2.7,0-5.3,0.3-7.9,0.8c-15.4,3-27.4,11.1-35.9,24.3c-0.5,0.8-0.5,1.4,0,2.2
	c10.3,15.5,24.6,24,43.2,25.1c1.4,0.1,2.2-0.4,2.9-1.6c3.2-5.1,7.3-9.5,12-13.3C94,133.4,101.5,129.7,109.9,127.6z M116.7,117.1
	c-1.4-5-2.3-9.4-2.6-14.1c-0.5-10.5,1.6-20.4,6.6-29.7c0.4-0.8,0.5-1.5-0.1-2.2C110.4,55.6,96,47.3,77.4,46
	c-1.5-0.1-2.2,0.5-2.8,1.7c-7.8,16.3-7.8,32.6-0.1,48.9c0.7,1.4,1.4,2,3.1,2.1c9.4,0.3,18.1,3.1,26.2,7.9
	C108.5,109.4,112.6,112.8,116.7,117.1z M128.8,116.8c0.4-0.2,0.6-0.3,0.7-0.4c10.7-11,23.7-17.1,39.1-17.7c1.2,0,1.6-0.7,2.1-1.6
	c7.4-15.1,8.1-30.4,1.6-45.9c-2.6-6.2-1.1-5.5-8-4.7c-16.7,2-29.7,10.2-39.1,24.2c-0.8,1.2-0.9,2-0.2,3.3c4,7.6,6.1,15.6,6.4,24.2
	C131.5,104.4,130.7,110.6,128.8,116.8z M116.6,138c-0.4,0.3-0.6,0.5-0.8,0.7c-10.4,10.8-23.2,16.6-38.1,17.5
	c-1.7,0.1-2.5,0.8-3.2,2.2c-7,14.8-7.7,29.9-1.4,45c2.7,6.6,1,5.9,8.7,4.9c16.3-2,28.9-10,38.2-23.5c1.1-1.6,1.1-2.8,0.3-4.6
	c-5.2-10.1-7-20.8-5.7-32C114.9,144.9,115.7,141.6,116.6,138z M129,138.3c1.2,4.4,2,8.8,2.3,13.2c0.6,10.5-1.5,20.5-6.5,29.9
	c-0.5,0.9-0.5,1.6,0.1,2.4c10.3,15.5,24.7,23.9,43.3,25c1.4,0.1,2-0.4,2.6-1.6c7.9-16.4,7.9-32.8,0-49.3c-0.5-1.1-1.1-1.6-2.4-1.7
	c-8.8-0.4-17.1-2.7-24.9-7C138.1,146.4,133.4,142.7,129,138.3z M124.7,18.4c-12.9,0.1-22.8,3-31.9,9c-5.9,3.9-10.7,8.8-14.7,14.5
	c-0.9,1.3-0.7,1.8,0.8,1.7c1.2,0,2.4,0.2,3.6,0.4c15.9,2.3,28.5,10.1,38.1,22.9c2.1,2.8,2,2.8,4.1,0.1c10.5-14,24.3-22,41.9-23.4
	c0.4,0,1.1,0.2,1.3-0.4c0.2-0.6-0.4-1.1-0.8-1.6C156.3,26.4,141.3,18.9,124.7,18.4z M168.2,211.8c-1.6-0.7-3-0.4-4.4-0.6
	c-16.8-2.4-30.1-10.5-39.9-24.3c-1-1.5-1.4-1.6-2.5,0c-8.9,12.7-20.9,20.7-36.2,23.7c-2.6,0.5-5.2,0.5-8.1,1.1
	c11.1,16.1,26.1,24.7,45.4,24.8C141.9,236.5,157.1,228,168.2,211.8z M72.3,208.9c0.2-1-0.3-1.6-0.6-2.2c-7-15.4-7.3-30.8-0.8-46.4
	c0.5-1.2,1.8-2.9,1.4-3.6c-0.6-1.2-2.6-0.6-4-0.7c-14.4-2-26.5-8.3-36-19.3c-1.8-2.1-3.4-4.3-5.3-6.7c-8.5,18.4-8.4,36.3,2.2,53.5
	C39,199.4,53.8,207.5,72.3,208.9z M72.8,46c-18.9,1.4-33.7,9.5-43.5,25.4c-10.6,17.2-10.7,35.2-2.2,53.7c1.9-2.8,3.7-5.3,5.8-7.5
	c10.2-11.1,22.8-17.6,37.9-18.7c2-0.1,1.8-0.7,1.1-2.2c-6.2-12.8-7.2-26.2-3.5-39.9C69.4,53.2,71,49.7,72.8,46z M218.4,125.2
	c8.8-19.4,8.4-38-3.3-55.6c-9.9-14.9-24.3-22.3-42.2-23.6c0.2,0.6,0.3,0.9,0.4,1.1c8,16.7,8.1,33.4,0.2,50.1c-0.8,1.7,0,1.6,1.2,1.7
	c6.3,0.3,12.3,1.9,18.1,4.4C203.3,107.8,211.7,115,218.4,125.2z M218.3,130.1c-0.3,0.3-0.4,0.4-0.5,0.6
	c-10.4,15.1-24.6,23.9-43,25.4c-1.7,0.1-2,0.6-1.2,2.2c4.7,9.7,6.5,19.9,5.2,30.7c-0.7,6.4-2.5,12.5-5.3,18.3
	c-0.6,1.2-0.6,1.8,0.9,1.6c0.9-0.1,1.9-0.2,2.8-0.3c15.7-2,28.2-9.5,37.4-22.3c7.9-11.1,10.8-23.6,9.5-37.1
	C223.4,142.4,221.5,136.1,218.3,130.1z M77.4,101.2c6.1,13.1,28.1,25.7,43,24.8C110.1,110.7,95.8,102.6,77.4,101.2z M125.2,126
	c19.8-0.6,36.5-13.1,42.6-24.7C152.2,101.7,134.4,110.6,125.2,126z M120.1,129.1c-14-1.3-38.1,12.6-42.4,24.4
	C93.1,153.5,111.4,143.9,120.1,129.1z M168,153.8c-6.2-13.1-30.8-27.1-42.8-24.5C135.5,144.3,149.6,152.3,168,153.8z M122.6,180
	c8.7-15.2,7.8-36.9-0.1-49.6C114.7,146.9,114.7,163.2,122.6,180z M122.6,124.8c8.1-13.1,8-40.8-0.1-49.6
	C114.7,91.7,114.7,108.1,122.6,124.8z"/>
</svg>
